<?xml version="1.0" standalone="no"?>
<!DOCTYPE svg PUBLIC "-//W3C//DTD SVG 1.1//EN" "http://www.w3.org/Graphics/SVG/1.1/DTD/svg11.dtd" >
<svg xmlns="http://www.w3.org/2000/svg" xmlns:xlink="http://www.w3.org/1999/xlink" version="1.1">
<metadata></metadata>
<defs>
<font id="sofia_problack" horiz-adv-x="1245" >
<font-face units-per-em="2048" ascent="1536" descent="-512" />
<missing-glyph horiz-adv-x="487" />
<glyph unicode="&#xfb01;" horiz-adv-x="1490" d="M41 715v239h178v35q0 229 122 348t337 119h123v-309h-123q-60 0 -96 -39.5t-37 -118.5v-35h538h287v-954h-326v715h-499v-715h-326v715h-178zM1010 1272q0 77 58 130.5t138 53.5q82 0 138.5 -53t56.5 -131t-56.5 -132.5t-138.5 -54.5q-80 0 -138 54.5t-58 132.5z" />
<glyph unicode="&#xfb02;" horiz-adv-x="1458" d="M41 715v239h178v35q0 229 122 348t337 119h657v-1456h-325v1147h-332q-60 0 -96 -39.5t-37 -118.5v-35h200v-239h-200v-715h-326v715h-178z" />
<glyph unicode="&#xfb03;" horiz-adv-x="2340" d="M41 715v239h178v35q0 229 122 348t337 119h123v-309h-123q-60 0 -96 -39.5t-37 -118.5v-35h524v35q0 229 122 348t337 119h123v-309h-123q-60 0 -96 -39.5t-37 -118.5v-35h825v-954h-326v715h-499v-715h-326v715h-524v-715h-326v715h-178zM1860 1272q0 77 58 130.5 t138 53.5q82 0 138.5 -53t56.5 -131t-56.5 -132.5t-138.5 -54.5q-80 0 -138 54.5t-58 132.5z" />
<glyph unicode="&#xfb04;" horiz-adv-x="2308" d="M41 715v239h178v35q0 229 122 348t337 119h123v-309h-123q-60 0 -96 -39.5t-37 -118.5v-35h524v35q0 229 122 348t337 119h657v-1456h-325v1147h-332q-60 0 -96 -39.5t-37 -118.5v-35h200v-239h-200v-715h-326v715h-524v-715h-326v715h-178z" />
<glyph horiz-adv-x="0" />
<glyph horiz-adv-x="682" />
<glyph unicode=" "  horiz-adv-x="487" />
<glyph unicode="&#x09;" horiz-adv-x="487" />
<glyph unicode="&#xa0;" horiz-adv-x="487" />
<glyph unicode="!" horiz-adv-x="604" d="M106 172q0 79 57 132.5t136 53.5q81 0 139 -53t58 -133q0 -81 -58 -135.5t-139 -54.5q-79 0 -136 54.5t-57 135.5zM131 1411h342l-37 -938h-268z" />
<glyph unicode="&#x22;" horiz-adv-x="847" d="M113 1411h264l-41 -616h-182zM471 1411h264l-41 -616h-182z" />
<glyph unicode="#" horiz-adv-x="1538" d="M72 328l55 194h240l106 338h-237l57 195h239l109 356h248l-111 -356h203l113 356h243l-112 -356h243l-55 -195h-244l-108 -338h244l-60 -194h-241l-111 -328h-242l107 328h-205l-109 -328h-241l110 328h-241zM610 522h203l111 338h-205z" />
<glyph unicode="$" horiz-adv-x="1196" d="M78 420h346q5 -62 47 -99.5t127 -37.5q74 0 124 32t50 95q0 13 -3 22t-14.5 25.5t-42.5 34t-81 34.5l-166 56q-90 25 -158.5 64t-107.5 81t-63.5 92.5t-32 92t-7.5 85.5q0 176 118 291.5t306 136.5v224h158v-226q179 -26 288 -139t109 -295h-342q0 60 -36 95.5t-111 35.5 q-69 0 -109.5 -30.5t-40.5 -81.5q0 -14 3.5 -25.5t15.5 -28t40.5 -32.5t71.5 -29l162 -51q391 -121 391 -430q0 -99 -38 -178.5t-102.5 -129t-140.5 -78.5t-161 -38v-246h-158v244q-204 20 -323 136t-119 298z" />
<glyph unicode="%" horiz-adv-x="1431" d="M72 1096q0 116 78 195t194 79t195 -79t79 -195q0 -117 -79 -195t-195 -78q-117 0 -194.5 78t-77.5 195zM248 1096q0 -41 27.5 -69t68.5 -28t69.5 28t28.5 69t-28.5 69.5t-69.5 28.5t-68.5 -28.5t-27.5 -69.5zM279 0l673 1343h195l-676 -1343h-192zM813 254q0 116 78 195 t194 79t195.5 -79.5t79.5 -194.5q0 -116 -79.5 -194t-195.5 -78q-117 0 -194.5 77.5t-77.5 194.5zM989 254q0 -41 27.5 -68.5t68.5 -27.5q42 0 70.5 27.5t28.5 68.5t-29 69.5t-70 28.5t-68.5 -28.5t-27.5 -69.5z" />
<glyph unicode="&#x26;" horiz-adv-x="1452" d="M104 387q0 135 69 223.5t175 120.5q-88 18 -148.5 104.5t-60.5 206.5q0 154 119.5 263.5t308.5 121.5q136 10 245.5 -37t184.5 -137l-245 -196q-16 21 -45.5 38t-61.5 17q-70 0 -106.5 -39t-36.5 -80q0 -13 1 -23t9.5 -34.5t23.5 -40.5t48.5 -29.5t79.5 -13.5h184v145 h301v-155h176v-240h-176v-170q0 -73 10 -117.5t34.5 -68t67 -17t105.5 42.5v-241q-182 -68 -305 -34.5t-158 167.5q-47 -84 -151 -134t-205 -50q-202 0 -322.5 113t-120.5 294zM476 439.5q-1 -36.5 17.5 -68.5t60 -53t99.5 -21q17 0 38.5 4.5t51 20.5t52.5 42t39 73.5 t14 109.5v35h-195q-55 0 -96.5 -21t-60.5 -53t-20 -68.5z" />
<glyph unicode="'" horiz-adv-x="489" d="M113 1411h264l-41 -616h-182z" />
<glyph unicode="(" horiz-adv-x="815" d="M70 463q0 199 54 378t145.5 307.5t218 203.5t266.5 75v-237q-92 0 -190 -109.5t-163 -281t-65 -336.5q0 -164 65 -330t163 -270.5t190 -104.5v-235q-140 0 -266.5 71.5t-218 195t-145.5 299t-54 374.5z" />
<glyph unicode=")" horiz-adv-x="815" d="M61 -242q92 0 190 104.5t163 270.5t65 330q0 165 -65 336.5t-163 281t-190 109.5v237q140 0 266.5 -75t218 -203.5t145.5 -307.5t54 -378t-54 -374.5t-145.5 -299t-218 -195t-266.5 -71.5v235z" />
<glyph unicode="*" horiz-adv-x="966" d="M86 1096l64 190l247 -98l-16 268h205l-19 -266l252 96l60 -190l-256 -70l170 -213l-160 -113l-146 222l-155 -226l-156 119l168 207z" />
<glyph unicode="+" horiz-adv-x="1030" d="M94 371v221h309v309h222v-309h311v-221h-311v-312h-222v312h-309z" />
<glyph unicode="," horiz-adv-x="563" d="M-6 -170q43 61 66 99.5t48 98t35.5 131.5t10.5 165h288q0 -340 -280 -576z" />
<glyph unicode="-" horiz-adv-x="964" d="M119 358v277h727v-277h-727z" />
<glyph unicode="." horiz-adv-x="589" d="M100 172q0 79 57 132.5t136 53.5q81 0 138.5 -53t57.5 -133q0 -81 -57.5 -135.5t-138.5 -54.5q-79 0 -136 54.5t-57 135.5z" />
<glyph unicode="/" horiz-adv-x="1026" d="M59 0l670 1411h238l-670 -1411h-238z" />
<glyph unicode="0" horiz-adv-x="1236" d="M113 670q0 694 510 694q96 0 173 -24t131 -70t93 -107.5t61.5 -141t32.5 -165t10 -186.5q0 -100 -10 -185t-32.5 -164t-61.5 -139.5t-93 -106t-131 -69.5t-173 -24q-510 0 -510 688zM440 670q0 -107 18 -188.5t60 -133t105 -51.5q62 0 102 52t56 132.5t16 188.5 q0 109 -16 190.5t-56 134t-102 52.5q-48 0 -84 -29.5t-57 -82t-31.5 -119t-10.5 -146.5z" />
<glyph unicode="1" horiz-adv-x="811" d="M74 807v280l569 287v-1374h-334v913z" />
<glyph unicode="2" horiz-adv-x="1163" d="M98 0v184l555 643q62 73 62 123q0 44 -34 76.5t-108 32.5q-43 0 -74 -14.5t-50 -41.5t-29 -56.5t-17 -69.5l-294 45q33 207 160.5 324.5t328.5 117.5q183 0 313.5 -117t130.5 -297q0 -183 -139 -336l-297 -319h436v-295h-944z" />
<glyph unicode="3" horiz-adv-x="1124" d="M70 231l209 185q23 -54 81 -101t144 -47q97 0 145.5 44t48.5 110q0 61 -50.5 104t-149.5 43h-138v252h138q39 0 67 13.5t42 31.5t21.5 42t9 37t1.5 26q0 18 -12 44t-46 51.5t-81 25.5q-105 0 -183 -84l-192 157q62 98 176.5 152t253.5 47q117 -5 212.5 -58.5t147 -138.5 t48.5 -182q0 -82 -49 -149t-128 -111q112 -41 174 -127t62 -197q0 -131 -74 -227.5t-190 -143t-254 -46.5q-148 0 -263.5 65t-170.5 182z" />
<glyph unicode="4" horiz-adv-x="1290" d="M39 311l579 1032h414v-763h160v-269h-160v-311h-332v311h-661zM461 580h239v448z" />
<glyph unicode="5" horiz-adv-x="1236" d="M82 236l254 184q114 -131 233 -131q105 0 177.5 63t72.5 137q0 89 -61.5 139t-161.5 50q-194 0 -332 -143l-141 79l106 729h815v-284h-557l-28 -182q109 73 248 73q88 0 167.5 -32.5t139 -91.5t94.5 -146.5t35 -190.5q0 -221 -157.5 -365t-416.5 -144q-138 0 -269 70.5 t-218 185.5z" />
<glyph unicode="6" horiz-adv-x="1224" d="M106 631.5q-2 89.5 9.5 182t36 174t70 153t107 121.5t150.5 77.5t197 24.5q67 -2 123 -15t113.5 -41t106 -80t83.5 -126l-266 -127q-49 104 -170 104q-71 0 -123 -36t-78 -94.5t-37.5 -117t-11.5 -118.5q10 49 85.5 99t205.5 50q47 0 100 -13t110.5 -45t103.5 -78 t75.5 -120.5t29.5 -165.5q0 -203 -135 -330.5t-379 -127.5q-195 0 -328.5 127t-162.5 342q-13 91 -15 180.5zM463 434q0 -68 46 -115t122 -47t124 47t48 115q0 61 -46 108.5t-126 47.5q-72 0 -120 -48t-48 -108z" />
<glyph unicode="7" horiz-adv-x="1124" d="M82 1047v296h1016l-537 -1343h-368l419 1047h-530z" />
<glyph unicode="8" horiz-adv-x="1251" d="M98 418q0 114 55.5 208t153.5 130q-55 34 -89 102.5t-34 138.5q0 105 61.5 190t163 131t220.5 46q181 0 305.5 -104t124.5 -263q0 -75 -32 -144t-87 -97q91 -29 154 -129t63 -209q0 -128 -72 -228.5t-192 -154t-264 -53.5q-145 0 -265.5 53.5t-193 154t-72.5 228.5z M432 451q0 -75 54 -126t143 -51q88 0 141 50.5t53 126.5q0 68 -52.5 120t-131.5 52h-16q-83 0 -137 -51.5t-54 -120.5zM492 985q0 -55 37.5 -89t99.5 -34q61 0 97 34t36 89q0 45 -36 82t-89 37h-12q-58 0 -95.5 -35t-37.5 -84z" />
<glyph unicode="9" horiz-adv-x="1224" d="M96 905q0 203 135.5 331t378.5 128q195 0 329 -127t163 -342q13 -91 15 -180.5t-9.5 -182t-36.5 -174t-70.5 -153t-107 -121.5t-150 -77.5t-196.5 -24.5q-67 2 -123 14.5t-113.5 40.5t-106 80t-83.5 127l266 127q49 -105 170 -105q58 0 103 25t72 63t44.5 88.5t24 97 t6.5 93.5q-10 -49 -85.5 -99.5t-205.5 -50.5q-48 0 -100.5 12.5t-110.5 44t-103.5 77.5t-75.5 121t-30 167zM420 911q0 -61 46 -108t126 -47q72 0 120 47.5t48 107.5q0 68 -46 115t-122 47t-124 -47t-48 -115z" />
<glyph unicode=":" horiz-adv-x="632" d="M123 172q0 79 56.5 132.5t135.5 53.5q81 0 137 -52.5t56 -133.5q0 -83 -56 -136.5t-137 -53.5q-79 0 -135.5 54.5t-56.5 135.5zM123 786q0 81 56.5 136t135.5 55q81 0 137 -54t56 -137q0 -81 -56 -133.5t-137 -52.5q-79 0 -135.5 53.5t-56.5 132.5z" />
<glyph unicode=";" horiz-adv-x="614" d="M20 -170q43 61 66 99.5t48 98t35.5 131.5t10.5 165h289q0 -339 -281 -576zM125 786q0 81 56.5 136t135.5 55t136 -55t57 -136q0 -79 -57 -132.5t-136 -53.5t-135.5 53.5t-56.5 132.5z" />
<glyph unicode="&#x3c;" horiz-adv-x="1261" d="M88 516v250l1024 391v-235l-723 -283l723 -279v-237z" />
<glyph unicode="=" horiz-adv-x="1212" d="M135 338v209h942v-209h-942zM135 756v209h942v-209h-942z" />
<glyph unicode="&#x3e;" horiz-adv-x="1261" d="M150 123v237l722 279l-722 283v235l1024 -391v-250z" />
<glyph unicode="?" horiz-adv-x="1015" d="M78 991q0 214 117 327.5t315 113.5q194 0 313 -108.5t119 -291.5q0 -145 -70 -244t-192 -143q-62 -23 -84.5 -60.5t-22.5 -111.5h-292v25q0 57 2.5 93.5t14.5 83t34 79t62.5 65.5t99.5 58l75 32q70 29 70 103q0 53 -36.5 81.5t-98.5 28.5q-53 0 -92 -36.5t-39 -94.5h-295 zM238 172q0 79 56.5 132.5t135.5 53.5q81 0 139 -53t58 -133q0 -81 -58 -135.5t-139 -54.5q-79 0 -135.5 54.5t-56.5 135.5z" />
<glyph unicode="@" horiz-adv-x="1972" d="M90 553q0 184 69 350.5t186.5 287.5t282 192t347.5 71q185 0 354 -66t294.5 -179.5t200 -275t74.5 -343.5q0 -77 -13 -157t-43.5 -161.5t-75 -144.5t-115 -103t-156.5 -40q-62 0 -116 17.5t-99.5 53.5t-71.5 100.5t-26 151.5v256q0 97 -67.5 163.5t-160.5 66.5 t-160 -66.5t-67 -163.5q0 -91 67.5 -158t159.5 -67q89 0 146 33v-201q-56 -27 -146 -27q-176 0 -300 122t-124 298q0 179 124 301.5t300 122.5q175 0 296.5 -117.5t129.5 -285.5v-287q0 -63 34 -94t81 -31q60 0 103 42.5t64 111t29.5 133.5t8.5 131q0 188 -99.5 342 t-265.5 239.5t-360 85.5q-190 0 -348.5 -95t-249 -256.5t-90.5 -352.5q0 -143 53.5 -271t145 -220.5t219 -146.5t270.5 -54h125v-199h-125q-184 0 -348 69.5t-281.5 188.5t-186.5 284t-69 349z" />
<glyph unicode="A" horiz-adv-x="1366" d="M-23 0l521 1411h372l519 -1411h-363l-119 324h-444l-119 -324h-367zM555 618h264l-137 465z" />
<glyph unicode="B" horiz-adv-x="1318" d="M158 0v1411h577q196 0 314 -104t118 -275q0 -34 -9.5 -72t-30.5 -80t-62 -76.5t-96 -49.5q69 -10 123.5 -44.5t85.5 -83.5t47 -102t16 -106q0 -81 -25 -152.5t-77.5 -132.5t-145.5 -97t-217 -36h-618zM502 299h219q75 0 116.5 43t41.5 102q0 57 -40 99.5t-120 42.5h-217 v-287zM502 866h184q54 0 86.5 31.5t32.5 85.5q0 59 -28 94t-87 35h-188v-246z" />
<glyph unicode="C" horiz-adv-x="1447" d="M78 705q0 196 96 363t261.5 264.5t361.5 97.5q187 0 344.5 -86.5t257.5 -237.5q4 2 -2 -3q-8 -6 -52 -36q-51 -34 -79 -53l-152 -107q-51 81 -135 129.5t-182 48.5q-156 0 -264.5 -110.5t-108.5 -269.5q0 -158 108 -268.5t265 -110.5q100 0 183.5 47t135.5 129l281 -197 q-100 -151 -256.5 -237t-343.5 -86q-118 0 -228 36.5t-198 104t-154.5 156.5t-102.5 199t-36 227z" />
<glyph unicode="D" horiz-adv-x="1443" d="M158 0v1411h559q150 0 272 -54.5t202 -150t123.5 -224.5t43.5 -280q0 -202 -74 -359.5t-221 -250t-346 -92.5h-559zM502 305h215q96 0 165 57t101.5 145t32.5 195t-32.5 197t-102 148.5t-164.5 58.5h-215v-801z" />
<glyph unicode="E" horiz-adv-x="1189" d="M158 0v1411h915v-299h-573v-270h504v-293h-504v-250h592v-299h-934z" />
<glyph unicode="F" horiz-adv-x="1116" d="M158 0v1411h907v-299h-561v-270h444v-295h-444v-547h-346z" />
<glyph unicode="G" horiz-adv-x="1548" d="M78 705q0 197 96 363.5t263.5 264t367.5 97.5q171 0 314 -66.5t237 -183.5l-254 -215q-121 147 -297 147q-159 0 -270 -119t-111 -288q0 -167 111.5 -289.5t269.5 -122.5q130 0 215.5 46.5t107.5 141.5h-395v275h768q0 -198 -51.5 -348.5t-146 -242.5t-219.5 -137.5 t-279 -45.5q-200 0 -367.5 97.5t-263.5 263.5t-96 362z" />
<glyph unicode="H" horiz-adv-x="1435" d="M158 0v1411h342v-557h430v557h348v-1411h-348v549h-430v-549h-342z" />
<glyph unicode="I" horiz-adv-x="657" d="M158 0v1411h342v-1411h-342z" />
<glyph unicode="J" horiz-adv-x="661" d="M-199 -432l31 307q65 -25 197 -25q65 0 97 45.5t32 118.5v1397h346v-1397q0 -102 -26.5 -187t-81 -153t-148 -106.5t-219.5 -38.5q-38 0 -104 10t-124 29z" />
<glyph unicode="K" horiz-adv-x="1296" d="M158 0v1411h342v-403l280 403h428l-530 -696l659 -715h-469l-368 430v-430h-342z" />
<glyph unicode="L" horiz-adv-x="1060" d="M158 0v1411h346v-1112h508v-299h-854z" />
<glyph unicode="M" horiz-adv-x="1869" d="M80 0l174 1411h285l397 -858l391 858h289l172 -1411h-352l-86 760l-285 -596h-258l-287 596l-88 -760h-352z" />
<glyph unicode="N" horiz-adv-x="1388" d="M158 0v1411h309l422 -760v760h342v-1411h-299l-432 770v-770h-342z" />
<glyph unicode="O" horiz-adv-x="1595" d="M78 705q0 196 96 363t261.5 264.5t361.5 97.5q197 0 363 -97.5t262 -264t96 -363.5q0 -196 -96 -362t-262 -263.5t-363 -97.5q-118 0 -228 36.5t-198 104t-154.5 156.5t-102.5 199t-36 227zM424 705q0 -158 108 -268.5t265 -110.5q156 0 266.5 110.5t110.5 268.5 t-110.5 269t-266.5 111t-264.5 -110.5t-108.5 -269.5z" />
<glyph unicode="P" horiz-adv-x="1265" d="M158 0v1411h583q121 0 216 -40t152 -107.5t86.5 -150t29.5 -173.5q0 -92 -29.5 -174t-86.5 -149t-152 -106.5t-216 -39.5h-241v-471h-342zM500 766h225q78 0 116 51t38 123q0 70 -38 121t-116 51h-225v-346z" />
<glyph unicode="Q" horiz-adv-x="1609" d="M78 705q0 197 96 363.5t263.5 264t367.5 97.5q201 0 369 -97.5t264 -264t96 -363.5q0 -175 -79.5 -327t-217.5 -257l131 -221l-238 -142l-147 244q-79 -20 -178 -20q-200 0 -367.5 97.5t-263.5 263.5t-96 362zM424 705q0 -135 73.5 -238t196.5 -141q12 -5 26 -8.5t24 -5 t28.5 -4t28.5 -3.5l-101 170l238 139l125 -204q125 113 125 295q0 167 -111.5 285t-271.5 118q-159 0 -270 -117.5t-111 -285.5z" />
<glyph unicode="R" horiz-adv-x="1314" d="M158 0v1411h583q121 0 216 -40t152 -107.5t86.5 -150t29.5 -173.5q0 -103 -35.5 -193.5t-114 -162t-188.5 -97.5l344 -487h-397l-304 471h-30v-471h-342zM500 766h225q78 0 116 51t38 123q0 70 -38 121t-116 51h-225v-346z" />
<glyph unicode="S" horiz-adv-x="1200" d="M82 420h346q5 -62 47 -99.5t127 -37.5q74 0 124 32t50 95q0 13 -3 22t-14.5 25.5t-42.5 34t-81 34.5l-166 56q-90 25 -158.5 64t-107.5 81t-63.5 92.5t-32 92t-7.5 85.5q0 191 139.5 312t354.5 121q214 0 349.5 -118t135.5 -323h-342q0 60 -36 95.5t-111 35.5 q-69 0 -109.5 -30.5t-40.5 -81.5q0 -14 3.5 -25.5t15.5 -28t40.5 -32.5t71.5 -29l162 -51q391 -121 391 -430q0 -90 -31.5 -164t-83.5 -122.5t-120.5 -81.5t-140.5 -47.5t-146 -14.5q-238 0 -379 118.5t-141 319.5z" />
<glyph unicode="T" horiz-adv-x="1181" d="M55 1112v299h1071v-299h-364v-1112h-342v1112h-365z" />
<glyph unicode="U" horiz-adv-x="1396" d="M141 514v897h344v-897q0 -90 65 -150.5t148 -60.5t148 60.5t65 150.5v897h344v-897q0 -158 -78.5 -281t-204.5 -187t-274 -64t-274 64t-204.5 187t-78.5 281z" />
<glyph unicode="V" horiz-adv-x="1212" d="M25 1411h356l225 -860l221 860h361l-432 -1411h-301z" />
<glyph unicode="W" horiz-adv-x="1808" d="M-12 1411h370l244 -803l160 600h285l157 -600l246 803h373l-480 -1411h-264l-178 686l-172 -686h-266z" />
<glyph unicode="X" horiz-adv-x="1386" d="M4 0l485 750l-446 661h414l237 -391l240 391h409l-446 -661l487 -750h-403l-287 477l-288 -477h-402z" />
<glyph unicode="Y" horiz-adv-x="1357" d="M-45 1411h407l314 -512l319 512h406l-551 -782v-629h-344v635z" />
<glyph unicode="Z" horiz-adv-x="1232" d="M84 0v252l604 862h-577v297h1026v-252l-613 -860h613v-299h-1053z" />
<glyph unicode="[" horiz-adv-x="700" d="M139 -471v1882h498v-221h-234v-1434h234v-227h-498z" />
<glyph unicode="\" horiz-adv-x="1026" d="M59 1411h238l670 -1411h-238z" />
<glyph unicode="]" horiz-adv-x="700" d="M63 -244h234v1434h-234v221h498v-1882h-498v227z" />
<glyph unicode="_" horiz-adv-x="1560" d="M117 -70h1327v-219h-1327v219z" />
<glyph unicode="`" horiz-adv-x="1120" d="M264 1481h303l191 -357h-211z" />
<glyph unicode="a" d="M68 479q0 112 39.5 208t104.5 158.5t148 98t172 35.5q76 0 149.5 -33.5t115.5 -93.5v102h325v-954h-325v109q-43 -61 -114 -94t-151 -33q-89 0 -172 34.5t-148.5 96.5t-104.5 157.5t-39 208.5zM399 477q0 -82 58.5 -140t140.5 -58t140.5 58t58.5 140t-58.5 140.5 t-140.5 58.5t-140.5 -58.5t-58.5 -140.5z" />
<glyph unicode="b" horiz-adv-x="1247" d="M123 0v1456h326v-590q105 113 264 113q89 0 172.5 -35.5t148.5 -98t104.5 -158.5t39.5 -208q0 -113 -39.5 -208.5t-104.5 -157.5t-148.5 -96.5t-172.5 -34.5q-87 0 -166 37.5t-117 117.5v-137h-307zM449 477q0 -82 58 -140t140 -58t140.5 58t58.5 140t-58.5 140.5 t-140.5 58.5t-140 -58.5t-58 -140.5z" />
<glyph unicode="c" horiz-adv-x="1077" d="M68 479q0 147 73.5 262.5t193.5 176.5t263 61q259 0 420 -236l-266 -159q-27 44 -71 69t-97 25q-82 0 -140.5 -58.5t-58.5 -140.5t58.5 -140t140.5 -58q102 0 164 88l272 -152q-160 -235 -422 -235q-143 0 -263 60t-193.5 175t-73.5 262z" />
<glyph unicode="d" d="M68 479q0 112 39.5 208t104.5 158.5t148 98t172 35.5q160 0 265 -113v590h325v-1456h-307v137q-38 -80 -117 -117.5t-166 -37.5q-89 0 -172 34.5t-148.5 96.5t-104.5 157.5t-39 208.5zM399 477q0 -82 58.5 -140t140.5 -58t140.5 58t58.5 140t-58.5 140.5t-140.5 58.5 t-140.5 -58.5t-58.5 -140.5z" />
<glyph unicode="e" horiz-adv-x="1126" d="M68 483q0 147 70.5 261.5t185 174.5t251.5 60t249 -58t179.5 -170.5t67.5 -258.5q0 -24 -6 -105h-684q7 -65 72 -105t147 -40q115 0 182 80q30 -25 226 -162q-70 -93 -187.5 -135.5t-245.5 -42.5q-136 0 -251.5 61.5t-185.5 177.5t-70 262zM381 569h381q-12 43 -36 73.5 t-53.5 44t-54 19t-47.5 5.5q-22 0 -47 -5.5t-56 -19t-55 -44t-32 -73.5z" />
<glyph unicode="f" horiz-adv-x="782" d="M41 715v239h178v35q0 229 122 348t337 119h123v-309h-123q-60 0 -96 -39.5t-37 -118.5v-35h200v-239h-200v-715h-326v715h-178z" />
<glyph unicode="g" d="M68 479q0 112 39.5 208t104.5 158.5t148 98t172 35.5q76 0 149.5 -33.5t115.5 -93.5v102h325v-833q0 -297 -141.5 -451.5t-407.5 -154.5q-166 0 -298 87t-187 226l274 111q24 -57 80.5 -92t130.5 -35q123 0 187.5 77.5t64.5 229.5q-37 -63 -112 -100t-181 -37 q-89 0 -172 34.5t-148.5 96.5t-104.5 157.5t-39 208.5zM399 477q0 -82 58.5 -140t140.5 -58t140.5 58t58.5 140t-58.5 140.5t-140.5 58.5t-140.5 -58.5t-58.5 -140.5z" />
<glyph unicode="h" horiz-adv-x="1208" d="M123 0v1456h326v-651q15 56 65 97.5t103.5 59t99.5 17.5q189 0 285 -122.5t96 -348.5v-508h-326v498q0 78 -49 122t-107 44q-67 0 -117 -39.5t-50 -122.5v-502h-326z" />
<glyph unicode="i" horiz-adv-x="571" d="M88 1272q0 77 58.5 130.5t138.5 53.5q82 0 138 -53t56 -131t-56 -132.5t-138 -54.5q-80 0 -138.5 55t-58.5 132zM123 0v954h326v-954h-326z" />
<glyph unicode="j" horiz-adv-x="571" d="M-133 -176h123q60 0 96 39.5t37 118.5v34v938h326v-938v-34q0 -229 -122 -348t-337 -119h-123v309zM90 1272q0 77 58.5 130.5t138.5 53.5q82 0 138 -53t56 -131t-56 -132.5t-138 -54.5q-80 0 -138.5 55t-58.5 132z" />
<glyph unicode="k" horiz-adv-x="1101" d="M123 0v1456h326v-733l186 231h399l-352 -424l428 -530h-389l-272 344v-344h-326z" />
<glyph unicode="l" horiz-adv-x="571" d="M123 0v1456h326v-1456h-326z" />
<glyph unicode="m" horiz-adv-x="1810" d="M123 0v954h326v-149q23 83 96.5 128.5t146.5 45.5q138 0 220.5 -51t121.5 -152q26 54 62.5 94.5t76 63.5t76.5 34t70 11q208 0 294.5 -118t86.5 -353v-508h-326v498q0 85 -47 125.5t-108 40.5q-63 0 -103.5 -38t-40.5 -124v-502h-327v498q0 85 -47.5 125.5t-108.5 40.5 q-62 0 -102.5 -38t-40.5 -124v-502h-326z" />
<glyph unicode="n" horiz-adv-x="1208" d="M123 0v954h326v-149q15 56 65 97.5t103.5 59t99.5 17.5q189 0 285 -122.5t96 -348.5v-508h-326v498q0 85 -47.5 125.5t-108.5 40.5q-67 0 -117 -39t-50 -123v-502h-326z" />
<glyph unicode="o" horiz-adv-x="1153" d="M68 479q0 147 70 262.5t184.5 176.5t250.5 61q101 0 194 -36t163.5 -100t112.5 -158.5t42 -205.5q0 -146 -72 -261t-188 -175.5t-252 -60.5t-250.5 60.5t-184.5 175.5t-70 261zM375 479q0 -82 58 -140t140 -58t140.5 58t58.5 140t-58.5 140.5t-140.5 58.5t-140 -58.5 t-58 -140.5z" />
<glyph unicode="p" horiz-adv-x="1247" d="M123 -471v1425h307v-137q37 79 117.5 120.5t165.5 41.5q89 0 172.5 -34.5t148.5 -97t104.5 -158t39.5 -208.5q0 -112 -39.5 -207.5t-104.5 -158.5t-148.5 -98t-172.5 -35q-166 0 -264 106v-559h-326zM449 477q0 -81 58 -136.5t140 -55.5t140.5 58t58.5 140t-58.5 140.5 t-140.5 58.5q-81 0 -139.5 -61.5t-58.5 -143.5z" />
<glyph unicode="q" d="M68 481q0 113 39 208.5t104.5 158t148.5 97t172 34.5q85 0 165.5 -41.5t117.5 -120.5v137h307v-1425h-325v559q-98 -106 -265 -106q-89 0 -172 35t-148.5 98t-104.5 158.5t-39 207.5zM399 483q0 -82 58.5 -140t140.5 -58t140.5 55.5t58.5 136.5q0 82 -59 143.5t-140 61.5 q-82 0 -140.5 -58.5t-58.5 -140.5z" />
<glyph unicode="r" horiz-adv-x="878" d="M123 0v954h309v-235q35 128 118.5 194t182.5 66q82 0 141 -27l-79 -307q-68 25 -148 25q-66 0 -107 -28.5t-66 -109t-25 -219.5v-313h-326z" />
<glyph unicode="s" horiz-adv-x="985" d="M70 319h305q0 -37 27.5 -67.5t82.5 -30.5q42 0 71.5 17.5t29.5 46.5q0 23 -15 32t-71 23l-121 33q-62 17 -110.5 40.5t-79 46t-52 53t-31.5 51t-15.5 51t-6 43t-0.5 36.5q0 108 116.5 196.5t272.5 88.5q64 0 122 -10t113 -35t95 -61.5t64 -94t24 -129.5h-305q0 86 -97 86 q-34 0 -56.5 -13t-22.5 -40q0 -21 15 -36t56 -25l170 -48q70 -19 122 -50t78.5 -62.5t42.5 -68.5t20 -60.5t4 -46.5q0 -77 -38.5 -137t-102.5 -95t-138.5 -53t-153.5 -18q-78 0 -151 22t-132.5 63t-95.5 106.5t-36 145.5z" />
<glyph unicode="t" horiz-adv-x="774" d="M41 715v239h174v342h322v-342h200v-239h-200v-715h-322v715h-174z" />
<glyph unicode="u" horiz-adv-x="1208" d="M111 453v501h325v-491q0 -85 47.5 -125.5t108.5 -40.5q66 0 117 36.5t51 119.5v501h325v-954h-325v150q-15 -56 -65.5 -96.5t-103 -56t-99.5 -15.5q-189 0 -285 122.5t-96 348.5z" />
<glyph unicode="v" horiz-adv-x="1083" d="M-4 954h350l197 -542l192 542h352l-407 -954h-279z" />
<glyph unicode="w" horiz-adv-x="1554" d="M10 954h348l144 -526l145 526h256l146 -526l143 526h348l-328 -954h-276l-160 571l-151 -571h-277z" />
<glyph unicode="x" horiz-adv-x="1114" d="M4 0l377 516l-318 438h375l123 -180l117 180h373l-316 -438l373 -516h-373l-178 262l-178 -262h-375z" />
<glyph unicode="y" horiz-adv-x="1060" d="M-8 954h356l187 -462l178 462h346l-590 -1425h-342l240 598z" />
<glyph unicode="z" horiz-adv-x="1048" d="M82 0v233l403 426h-376v295h843v-237l-409 -422h409v-295h-870z" />
<glyph unicode="{" horiz-adv-x="847" d="M55 383v174q49 0 87 32t38 93v315q0 185 120.5 299.5t297.5 114.5h190v-221h-163q-93 0 -137 -59t-44 -148v-278q0 -52 -19 -97t-48 -73t-60 -45t-59 -21q65 -9 125.5 -70.5t60.5 -162.5v-279q0 -89 44 -148t137 -59h163v-221h-190q-177 0 -297.5 114.5t-120.5 299.5v315 q0 61 -38 93t-87 32z" />
<glyph unicode="|" horiz-adv-x="436" d="M139 -258v1907h158v-1907h-158z" />
<glyph unicode="}" horiz-adv-x="847" d="M59 -250h164q93 0 136.5 59t43.5 148v279q0 101 61 162.5t126 70.5q-28 4 -59 21t-60.5 45t-48.5 73t-19 97v278q0 89 -43.5 148t-136.5 59h-164v221h191q177 0 297.5 -114.5t120.5 -299.5v-315q0 -61 38 -93t87 -32v-174q-49 0 -87 -32t-38 -93v-315 q0 -185 -120.5 -299.5t-297.5 -114.5h-191v221z" />
<glyph unicode="&#xa1;" horiz-adv-x="571" d="M90 788q0 81 57 136t136 55q81 0 138.5 -55t57.5 -136q0 -80 -57.5 -133t-138.5 -53q-79 0 -136 53.5t-57 132.5zM115 -469l37 938h268l37 -938h-342z" />
<glyph unicode="&#xa2;" horiz-adv-x="1105" d="M76 479q0 193 120.5 325t305.5 165v256h157v-250q224 -23 367 -232l-266 -159q-27 44 -71 69t-97 25q-82 0 -140.5 -58.5t-58.5 -140.5t58.5 -140t140.5 -58q102 0 164 88l272 -152q-144 -211 -369 -231v-244h-157v250q-184 29 -305 161t-121 326z" />
<glyph unicode="&#xa3;" horiz-adv-x="1437" d="M78 0v272h229v334h-160v131h160v242q0 206 122 328.5t321 122.5q489 0 489 -494h-324q0 166 -145 166q-63 0 -99 -45t-36 -111v-209h205v-131h-205v-334h342q35 0 46 21t11 63v103h320v-176q0 -119 -85.5 -201t-197.5 -82h-993z" />
<glyph unicode="&#xa4;" horiz-adv-x="1261" d="M125 330l145 147q-59 95 -59 217q0 121 61 219l-147 148l141 141l148 -147q99 61 217 61q121 0 219 -61l145 147l142 -141l-148 -150q64 -108 64 -217q0 -122 -62 -217l146 -147l-142 -142l-145 148q-100 -62 -219 -62t-219 62l-146 -148zM473 694q0 -66 46 -111.5 t112 -45.5q67 0 113.5 45.5t46.5 111.5q0 68 -46.5 114t-113.5 46q-66 0 -112 -46.5t-46 -113.5z" />
<glyph unicode="&#xa5;" horiz-adv-x="1568" d="M61 1411h408l313 -512l320 512h405l-520 -741h268v-144h-297v-202h297v-142h-297v-182h-348v182h-297v142h297v202h-297v144h271z" />
<glyph unicode="&#xa6;" horiz-adv-x="444" d="M143 -258v782h158v-782h-158zM143 872v777h158v-777h-158z" />
<glyph unicode="&#xa7;" horiz-adv-x="1138" d="M109 569v418q0 131 61.5 233.5t163 156t223.5 53.5q74 0 145.5 -21.5t135 -63.5t109 -114t59.5 -164l-269 -80q-23 86 -72.5 123t-107.5 37q-68 0 -116 -45t-48 -115v-418q0 -81 51.5 -120t130.5 -39q49 0 80 4v-279q-47 -10 -98 -10q-122 0 -223.5 54t-163 156.5 t-61.5 233.5zM133 -63l268 79q23 -86 73 -122.5t108 -36.5q68 0 115.5 44.5t47.5 114.5v418q0 81 -51.5 120.5t-130.5 39.5q-49 0 -80 -4v278q52 11 99 11q122 0 224 -54t163 -157t61 -234v-418q0 -197 -130 -319.5t-318 -122.5q-74 0 -145.5 21.5t-135 63.5t-109 114 t-59.5 164z" />
<glyph unicode="&#xa8;" horiz-adv-x="1187" d="M246 1313q0 62 45.5 104.5t111.5 42.5t110 -42.5t44 -104.5q0 -63 -44 -106.5t-110 -43.5t-111.5 43.5t-45.5 106.5zM631 1313q0 61 47 104t113 43q63 0 107 -43t44 -104q0 -63 -44 -106.5t-107 -43.5q-66 0 -113 43.5t-47 106.5z" />
<glyph unicode="&#xa9;" horiz-adv-x="1622" d="M96 702q0 147 56 281t151.5 231.5t228 155t279.5 57.5t280 -57.5t228.5 -155t152 -231.5t56.5 -281q0 -148 -56.5 -281.5t-152 -230t-228.5 -153.5t-280 -57t-279.5 57t-228 153.5t-151.5 230t-56 281.5zM256 702q0 -152 73.5 -281t201.5 -204.5t280 -75.5t280 75.5 t201.5 204.5t73.5 281q0 115 -43.5 219t-117.5 180t-177 120.5t-217 44.5t-217 -44.5t-177 -120.5t-117.5 -180t-43.5 -219zM455 696q0 152 101.5 257.5t252.5 105.5q91 0 170 -43.5t129 -118.5l-135 -94q-70 94 -164 94q-79 0 -130.5 -57t-51.5 -144q0 -83 51.5 -139.5 t130.5 -56.5q96 0 166 94l137 -92q-50 -76 -131 -122t-172 -46q-150 0 -252 106t-102 256z" />
<glyph unicode="&#xaa;" horiz-adv-x="968" d="M104 991q0 161 101 259t246 98q110 0 194 -78v63h176v-686h-176v68q-82 -82 -194 -82q-144 0 -245.5 99t-101.5 259zM135 406v139h686v-139h-686zM283 993q0 -81 51 -132.5t127 -51.5q77 0 130.5 49.5t53.5 134.5q0 83 -56 130.5t-128 47.5q-76 0 -127 -50t-51 -128z" />
<glyph unicode="&#xab;" horiz-adv-x="1081" d="M74 477l282 424h244l-283 -424l283 -424h-244zM473 477l283 424h243l-282 -424l282 -424h-243z" />
<glyph unicode="&#xac;" horiz-adv-x="1269" d="M131 502v274h993v-575h-276v301h-717z" />
<glyph unicode="&#xad;" horiz-adv-x="964" d="M119 358v277h727v-277h-727z" />
<glyph unicode="&#xae;" horiz-adv-x="1622" d="M96 702q0 147 56 281t151.5 231.5t228 155t279.5 57.5t280 -57.5t228.5 -155t152 -231.5t56.5 -281q0 -148 -56.5 -281.5t-152 -230t-228.5 -153.5t-280 -57t-279.5 57t-228 153.5t-151.5 230t-56 281.5zM256 702q0 -152 73.5 -281t201.5 -204.5t280 -75.5t280 75.5 t201.5 204.5t73.5 281q0 115 -43.5 219t-117.5 180t-177 120.5t-217 44.5t-217 -44.5t-177 -120.5t-117.5 -180t-43.5 -219zM561 356v695h291q115 0 177.5 -69.5t62.5 -164.5q0 -80 -42 -141.5t-118 -87.5l172 -232h-207l-149 224h-15v-224h-172zM733 731h109q33 0 53 26.5 t20 59.5q0 28 -19 54t-48 26h-115v-166z" />
<glyph unicode="&#xaf;" horiz-adv-x="1081" d="M246 1186v178h590v-178h-590z" />
<glyph unicode="&#xb0;" horiz-adv-x="753" d="M82 1083q0 121 87 208t206 87q123 0 210 -86.5t87 -208.5q0 -123 -87 -210t-210 -87q-119 0 -206 87.5t-87 209.5zM250 1083q0 -56 35.5 -92.5t89.5 -36.5q55 0 92 37t37 92q0 54 -37 90.5t-92 36.5q-54 0 -89.5 -36.5t-35.5 -90.5z" />
<glyph unicode="&#xb1;" horiz-adv-x="1114" d="M133 -2v225h848v-225h-848zM133 610v221h313v287h222v-287h313v-221h-313v-291h-222v291h-313z" />
<glyph unicode="&#xb2;" horiz-adv-x="702" d="M59 993v125l340 383q28 41 9.5 73t-64.5 32q-29 0 -53 -19.5t-31 -62.5l-201 28q41 258 301 258q109 0 190 -71t81 -178q-3 -116 -84 -201l-174 -180h262v-187h-576z" />
<glyph unicode="&#xb3;" horiz-adv-x="690" d="M33 1122l110 111q15 -21 30 -35t50 -27.5t82 -13.5q62 0 92.5 27.5t30.5 68.5q0 39 -38.5 60.5t-92.5 21.5h-86v152h86q92 0 92 76q0 24 -22.5 43.5t-67.5 19.5q-76 0 -123 -51l-113 117q41 57 113 87.5t160 30.5q112 0 187 -68.5t75 -158.5q0 -99 -115 -156 q144 -52 150 -180q4 -127 -89 -195.5t-231 -68.5q-97 0 -171.5 35t-108.5 104z" />
<glyph unicode="&#xb4;" horiz-adv-x="1120" d="M264 1124l191 357h303l-283 -357h-211z" />
<glyph unicode="&#xb5;" horiz-adv-x="1224" d="M139 -389v1343h326v-497q0 -85 47.5 -125.5t108.5 -40.5q29 0 57 8.5t53.5 26t41 50.5t15.5 77v501h326v-954h-326v150q-15 -56 -65 -98t-103.5 -59.5t-99.5 -17.5q-43 0 -100 11v-375h-281z" />
<glyph unicode="&#xb6;" horiz-adv-x="1529" d="M68 967q0 185 129 314.5t315 129.5h207v-1505h-227v616q-177 12 -300.5 139.5t-123.5 305.5zM487 -240h291q40 0 63 27.5t23 67.5v1556h314q119 0 199.5 -84.5t80.5 -196.5v-176h-201v150q0 40 -27.5 63t-66.5 23h-82v-1348q0 -111 -79.5 -195.5t-200.5 -84.5h-314v198z " />
<glyph unicode="&#xb7;" horiz-adv-x="587" d="M100 793q0 81 56 133.5t137 52.5q80 0 137 -53.5t57 -132.5q0 -81 -56.5 -135t-137.5 -54t-137 53t-56 136z" />
<glyph unicode="&#xb8;" horiz-adv-x="1093" d="M330 -178l143 -8q-8 -74 41 -101q38 -21 72 3q43 30 24 95q-2 6 -4 13l-110 223h137l110 -170q23 -41 23 -104q0 -91 -63.5 -153t-149.5 -62q-96 0 -161.5 67t-61.5 197z" />
<glyph unicode="&#xb9;" horiz-adv-x="497" d="M41 1458v178l360 187v-830h-217v531z" />
<glyph unicode="&#xba;" horiz-adv-x="942" d="M113 993q0 159 104 257t252 98q152 0 256 -97.5t104 -257.5t-104 -260t-256 -100q-147 0 -251.5 100t-104.5 260zM127 406v139h686v-139h-686zM287 993q0 -83 52.5 -133.5t129.5 -50.5t129.5 50.5t52.5 133.5q0 80 -52.5 129t-129.5 49t-129.5 -49t-52.5 -129z" />
<glyph unicode="&#xbb;" horiz-adv-x="1081" d="M82 53l283 424l-283 424h244l282 -424l-282 -424h-244zM481 53l283 424l-283 424h244l283 -424l-283 -424h-244z" />
<glyph unicode="&#xbc;" horiz-adv-x="1699" d="M78 1001v179l360 186v-829h-217v530zM225 -18l926 1384h190l-923 -1384h-193zM913 190l330 617h289v-438h92v-179h-92v-190h-215v190h-404zM1190 369h127v249z" />
<glyph unicode="&#xbd;" horiz-adv-x="1710" d="M76 1001v179l360 186v-829h-217v530zM223 -18l926 1384h190l-923 -1384h-193zM1047 0v125l339 383q28 41 9.5 72.5t-64.5 31.5q-29 0 -53 -19.5t-31 -62.5l-200 29q41 258 301 258q109 0 189.5 -71.5t80.5 -178.5q-3 -115 -84 -200l-174 -181h262v-186h-575z" />
<glyph unicode="&#xbe;" horiz-adv-x="1888" d="M74 666l110 110q15 -21 30 -35t50 -27.5t82 -13.5q62 0 92.5 28t30.5 69q0 39 -38.5 60.5t-92.5 21.5h-86v151h86q92 0 92 76q0 24 -22.5 43.5t-67.5 19.5q-76 0 -123 -51l-113 117q41 57 113 88t160 31q112 0 187 -69t75 -159q0 -98 -115 -155q144 -52 150 -180 q4 -127 -89 -196t-231 -69q-96 0 -171 35.5t-109 104.5zM414 -18l925 1384h191l-924 -1384h-192zM1102 190l330 617h288v-438h92v-179h-92v-190h-215v190h-403zM1378 369h127v249z" />
<glyph unicode="&#xbf;" horiz-adv-x="997" d="M66 -82q0 145 70 244t192 143q62 23 84 60.5t22 111.5h293v-24q0 -57 -2.5 -93.5t-14.5 -83t-34 -79t-62.5 -65.5t-99.5 -58l-76 -33q-69 -28 -69 -102q0 -53 37 -82t98 -29q53 0 92 36.5t39 94.5h295q0 -214 -117 -327t-315 -113q-194 0 -313 108t-119 291zM381 788 q0 81 58 136t139 55q79 0 135.5 -55t56.5 -136q0 -79 -56.5 -132.5t-135.5 -53.5q-81 0 -139 53t-58 133z" />
<glyph unicode="&#xc0;" horiz-adv-x="1366" d="M-23 0l521 1411h372l519 -1411h-363l-119 324h-444l-119 -324h-367zM342 1890h303l191 -356h-211zM555 618h264l-137 465z" />
<glyph unicode="&#xc1;" horiz-adv-x="1366" d="M-23 0l521 1411h372l519 -1411h-363l-119 324h-444l-119 -324h-367zM498 1534l190 356h303l-282 -356h-211zM555 618h264l-137 465z" />
<glyph unicode="&#xc2;" horiz-adv-x="1366" d="M-23 0l521 1411h372l519 -1411h-363l-119 324h-444l-119 -324h-367zM299 1550l223 355h320l225 -355h-221l-164 183l-164 -183h-219zM555 618h264l-137 465z" />
<glyph unicode="&#xc3;" horiz-adv-x="1366" d="M-23 0l521 1411h372l519 -1411h-363l-119 324h-444l-119 -324h-367zM387 1544q7 139 68 202.5t139 63.5q37 0 70.5 -21t60.5 -42t47 -21q16 0 34 20.5t19 63.5h154q-4 -72 -24.5 -126t-52 -82t-64 -41t-66.5 -13q-35 0 -69 21t-62 42t-47 21q-15 0 -33.5 -22.5 t-19.5 -65.5h-154zM555 618h264l-137 465z" />
<glyph unicode="&#xc4;" horiz-adv-x="1366" d="M-23 0l521 1411h372l519 -1411h-363l-119 324h-444l-119 -324h-367zM334 1722q0 62 46 105t112 43q65 0 109 -43t44 -105q0 -63 -43.5 -106t-109.5 -43t-112 43t-46 106zM555 618h264l-137 465zM719 1722q0 61 47 104.5t113 43.5q63 0 107 -43t44 -105q0 -63 -44 -106 t-107 -43q-66 0 -113 43t-47 106z" />
<glyph unicode="&#xc5;" horiz-adv-x="1366" d="M-23 0l521 1411h372l519 -1411h-363l-119 324h-444l-119 -324h-367zM422 1788q0 110 76 187t182 77q110 0 186 -77t76 -187q0 -109 -76 -184.5t-186 -75.5q-106 0 -182 76t-76 184zM549 1788q0 -59 37.5 -96t93.5 -37q58 0 97.5 37t39.5 96q0 60 -39.5 99.5t-97.5 39.5 q-56 0 -93.5 -39.5t-37.5 -99.5zM555 618h264l-137 465z" />
<glyph unicode="&#xc6;" horiz-adv-x="1916" d="M-57 0l891 1411h966v-299h-575v-270h504v-289h-504v-254h592v-299h-936v2l-2 -2v311h-328l-195 -311h-413zM682 606h197v385z" />
<glyph unicode="&#xc7;" horiz-adv-x="1449" d="M78 705q0 196 96 363t261.5 264.5t361.5 97.5q187 0 344.5 -86.5t257.5 -237.5l-144 -100l-141 -99q-51 81 -135 129.5t-182 48.5q-156 0 -264.5 -110.5t-108.5 -269.5q0 -158 108 -268.5t265 -110.5q100 0 183.5 47t135.5 129l281 -197q-96 -144 -247 -230.5t-331 -92.5 l70 -105q22 -39 22 -104q0 -91 -63.5 -153t-149.5 -62q-96 0 -161.5 67t-61.5 197l143 -8q-7 -74 40 -101q38 -21 73 3q43 29 26 94q-2 7 -5 14l-84 170q-166 29 -301 130t-212 254t-77 327z" />
<glyph unicode="&#xc9;" horiz-adv-x="1189" d="M158 0v1411h915v-299h-573v-270h504v-293h-504v-250h592v-299h-934zM428 1534l190 356h304l-283 -356h-211z" />
<glyph unicode="&#xca;" horiz-adv-x="1189" d="M158 0v1411h915v-299h-573v-270h504v-293h-504v-250h592v-299h-934zM201 1550l223 355h319l226 -355h-221l-164 183l-164 -183h-219z" />
<glyph unicode="&#xcb;" horiz-adv-x="1189" d="M158 0v1411h915v-299h-573v-270h504v-293h-504v-250h592v-299h-934zM236 1722q0 62 45.5 105t111.5 43t110 -43t44 -105q0 -63 -44 -106t-110 -43t-111.5 43t-45.5 106zM621 1722q0 61 46.5 104.5t112.5 43.5q63 0 107.5 -43.5t44.5 -104.5q0 -63 -44.5 -106t-107.5 -43 q-66 0 -112.5 43t-46.5 106z" />
<glyph unicode="&#xcc;" horiz-adv-x="657" d="M8 1890h303l191 -356h-211zM158 0v1411h342v-1411h-342z" />
<glyph unicode="&#xcd;" horiz-adv-x="657" d="M156 1534l190 356h303l-282 -356h-211zM158 0v1411h342v-1411h-342z" />
<glyph unicode="&#xce;" horiz-adv-x="657" d="M-55 1550l223 355h319l226 -355h-221l-164 183l-164 -183h-219zM158 0v1411h342v-1411h-342z" />
<glyph unicode="&#xcf;" horiz-adv-x="657" d="M-18 1722q0 62 45.5 105t111.5 43t110 -43t44 -105q0 -63 -44 -106t-110 -43t-111.5 43t-45.5 106zM158 0v1411h342v-1411h-342zM367 1722q0 61 46.5 104.5t112.5 43.5q63 0 107.5 -43.5t44.5 -104.5q0 -63 -44.5 -106t-107.5 -43q-66 0 -112.5 43t-46.5 106z" />
<glyph unicode="&#xd0;" horiz-adv-x="1478" d="M0 578v206h193v627h559q150 0 272 -54.5t202 -150t123.5 -224.5t43.5 -280q0 -202 -74 -359.5t-221 -250t-346 -92.5h-559v578h-193zM537 305h215q96 0 165 57t101.5 145t32.5 195t-32.5 197t-102 148.5t-164.5 58.5h-215v-322h217v-206h-217v-273z" />
<glyph unicode="&#xd1;" horiz-adv-x="1388" d="M158 0v1411h309l422 -760v760h342v-1411h-299l-432 770v-770h-342zM397 1544q7 139 68 202.5t139 63.5q37 0 70.5 -21t60.5 -42t47 -21q16 0 34.5 20.5t19.5 63.5h153q-4 -72 -24.5 -126t-52 -82t-64 -41t-66.5 -13q-35 0 -69 21t-62 42t-47 21q-15 0 -33.5 -22.5 t-19.5 -65.5h-154z" />
<glyph unicode="&#xd2;" horiz-adv-x="1595" d="M78 705q0 196 96 363t261.5 264.5t361.5 97.5q197 0 363 -97.5t262 -264t96 -363.5q0 -196 -96 -362t-262 -263.5t-363 -97.5q-118 0 -228 36.5t-198 104t-154.5 156.5t-102.5 199t-36 227zM375 1890h303l190 -356h-211zM424 705q0 -158 108 -268.5t265 -110.5 q156 0 266.5 110.5t110.5 268.5t-110.5 269t-266.5 111t-264.5 -110.5t-108.5 -269.5z" />
<glyph unicode="&#xd3;" horiz-adv-x="1595" d="M78 705q0 196 96 363t261.5 264.5t361.5 97.5q197 0 363 -97.5t262 -264t96 -363.5q0 -196 -96 -362t-262 -263.5t-363 -97.5q-118 0 -228 36.5t-198 104t-154.5 156.5t-102.5 199t-36 227zM424 705q0 -158 108 -268.5t265 -110.5q156 0 266.5 110.5t110.5 268.5 t-110.5 269t-266.5 111t-264.5 -110.5t-108.5 -269.5zM702 1534l191 356h303l-283 -356h-211z" />
<glyph unicode="&#xd4;" horiz-adv-x="1595" d="M78 705q0 196 96 363t261.5 264.5t361.5 97.5q197 0 363 -97.5t262 -264t96 -363.5q0 -196 -96 -362t-262 -263.5t-363 -97.5q-118 0 -228 36.5t-198 104t-154.5 156.5t-102.5 199t-36 227zM414 1550l223 355h319l226 -355h-221l-164 183l-164 -183h-219zM424 705 q0 -158 108 -268.5t265 -110.5q156 0 266.5 110.5t110.5 268.5t-110.5 269t-266.5 111t-264.5 -110.5t-108.5 -269.5z" />
<glyph unicode="&#xd5;" horiz-adv-x="1595" d="M78 705q0 196 96 363t261.5 264.5t361.5 97.5q197 0 363 -97.5t262 -264t96 -363.5q0 -196 -96 -362t-262 -263.5t-363 -97.5q-118 0 -228 36.5t-198 104t-154.5 156.5t-102.5 199t-36 227zM424 705q0 -158 108 -268.5t265 -110.5q156 0 266.5 110.5t110.5 268.5 t-110.5 269t-266.5 111t-264.5 -110.5t-108.5 -269.5zM502 1544q7 139 68 202.5t139 63.5q37 0 70.5 -21t60.5 -42t47 -21q16 0 34 20.5t19 63.5h154q-4 -72 -24.5 -126t-52 -82t-64 -41t-66.5 -13q-35 0 -69 21t-62 42t-47 21q-15 0 -34 -22.5t-20 -65.5h-153z" />
<glyph unicode="&#xd6;" horiz-adv-x="1595" d="M78 705q0 196 96 363t261.5 264.5t361.5 97.5q197 0 363 -97.5t262 -264t96 -363.5q0 -196 -96 -362t-262 -263.5t-363 -97.5q-118 0 -228 36.5t-198 104t-154.5 156.5t-102.5 199t-36 227zM424 705q0 -158 108 -268.5t265 -110.5q156 0 266.5 110.5t110.5 268.5 t-110.5 269t-266.5 111t-264.5 -110.5t-108.5 -269.5zM449 1722q0 62 45.5 105t111.5 43t110 -43t44 -105q0 -63 -44 -106t-110 -43t-111.5 43t-45.5 106zM834 1722q0 61 46.5 104.5t112.5 43.5q63 0 107.5 -43.5t44.5 -104.5q0 -63 -44.5 -106t-107.5 -43q-66 0 -112.5 43 t-46.5 106z" />
<glyph unicode="&#xd7;" horiz-adv-x="995" d="M109 750l155 157l232 -231l233 233l156 -155l-234 -236l234 -229l-156 -158l-233 231l-230 -225l-155 158l227 223z" />
<glyph unicode="&#xd8;" horiz-adv-x="1593" d="M76 705q0 196 96 363t261.5 264.5t361.5 97.5q260 0 456 -166l162 166l96 -95l-163 -168q170 -204 170 -462q0 -196 -96 -362t-262 -263.5t-363 -97.5q-250 0 -447 157l31 31l-197 -201l-96 97l164 167q-174 212 -174 472zM422 705q0 -126 67 -224l523 535 q-89 71 -217 71q-157 0 -265 -111t-108 -271zM586 387q92 -63 209 -63q155 0 265.5 111.5t110.5 269.5q0 119 -67 213z" />
<glyph unicode="&#xd9;" horiz-adv-x="1396" d="M141 514v897h344v-897q0 -90 65 -150.5t148 -60.5t148 60.5t65 150.5v897h344v-897q0 -158 -78.5 -281t-204.5 -187t-274 -64t-274 64t-204.5 187t-78.5 281zM350 1890h303l191 -356h-211z" />
<glyph unicode="&#xda;" horiz-adv-x="1396" d="M141 514v897h344v-897q0 -90 65 -150.5t148 -60.5t148 60.5t65 150.5v897h344v-897q0 -158 -78.5 -281t-204.5 -187t-274 -64t-274 64t-204.5 187t-78.5 281zM565 1534l191 356h303l-283 -356h-211z" />
<glyph unicode="&#xdb;" horiz-adv-x="1396" d="M141 514v897h344v-897q0 -90 65 -150.5t148 -60.5t148 60.5t65 150.5v897h344v-897q0 -158 -78.5 -281t-204.5 -187t-274 -64t-274 64t-204.5 187t-78.5 281zM313 1550l224 355h319l225 -355h-221l-164 183l-164 -183h-219z" />
<glyph unicode="&#xdc;" horiz-adv-x="1396" d="M141 514v897h344v-897q0 -90 65 -150.5t148 -60.5t148 60.5t65 150.5v897h344v-897q0 -158 -78.5 -281t-204.5 -187t-274 -64t-274 64t-204.5 187t-78.5 281zM350 1722q0 62 46 105t112 43t110 -43t44 -105q0 -63 -44 -106t-110 -43t-112 43t-46 106zM735 1722 q0 61 47 104.5t113 43.5q63 0 107.5 -43.5t44.5 -104.5q0 -63 -44.5 -106t-107.5 -43q-66 0 -113 43t-47 106z" />
<glyph unicode="&#xdd;" horiz-adv-x="1357" d="M-45 1411h407l314 -512l319 512h406l-551 -782v-629h-344v635zM537 1534l190 356h303l-282 -356h-211z" />
<glyph unicode="&#xde;" horiz-adv-x="1177" d="M158 0v1411h342v-227h164q197 0 331.5 -128.5t134.5 -338.5q0 -140 -63 -249.5t-169 -167.5t-234 -58h-164v-242h-342zM500 524h133q73 0 118.5 50.5t45.5 136.5q0 87 -45 138.5t-119 51.5h-133v-377z" />
<glyph unicode="&#xdf;" horiz-adv-x="1595" d="M80 705q0 93 16 147h1049q-43 106 -135 169.5t-207 63.5q-99 0 -184 -47t-136 -131l-151 105q-105 66 -135 92q103 157 261 240.5t345 85.5q193 0 358.5 -97.5t262 -264.5t96.5 -363q0 -146 -57 -280t-153.5 -231t-229 -154.5t-277.5 -57.5t-278 56t-230.5 151.5 t-156 230.5t-58.5 285zM457 547q46 -104 138.5 -161.5t207.5 -59.5q114 0 204 60.5t134 160.5h-684z" />
<glyph unicode="&#xe0;" d="M68 479q0 112 39.5 208t104.5 158.5t148 98t172 35.5q76 0 149.5 -33.5t115.5 -93.5v102h325v-954h-325v109q-43 -61 -114 -94t-151 -33q-89 0 -172 34.5t-148.5 96.5t-104.5 157.5t-39 208.5zM309 1481h303l191 -357h-211zM399 477q0 -82 58.5 -140t140.5 -58t140.5 58 t58.5 140t-58.5 140.5t-140.5 58.5t-140.5 -58.5t-58.5 -140.5z" />
<glyph unicode="&#xe1;" d="M68 479q0 112 39.5 208t104.5 158.5t148 98t172 35.5q76 0 149.5 -33.5t115.5 -93.5v102h325v-954h-325v109q-43 -61 -114 -94t-151 -33q-89 0 -172 34.5t-148.5 96.5t-104.5 157.5t-39 208.5zM399 477q0 -82 58.5 -140t140.5 -58t140.5 58t58.5 140t-58.5 140.5 t-140.5 58.5t-140.5 -58.5t-58.5 -140.5zM465 1124l190 357h303l-282 -357h-211z" />
<glyph unicode="&#xe2;" d="M68 479q0 112 39.5 208t104.5 158.5t148 98t172 35.5q76 0 149.5 -33.5t115.5 -93.5v102h325v-954h-325v109q-43 -61 -114 -94t-151 -33q-89 0 -172 34.5t-148.5 96.5t-104.5 157.5t-39 208.5zM242 1141l223 354h319l226 -354h-222l-163 182l-164 -182h-219zM399 477 q0 -82 58.5 -140t140.5 -58t140.5 58t58.5 140t-58.5 140.5t-140.5 58.5t-140.5 -58.5t-58.5 -140.5z" />
<glyph unicode="&#xe3;" d="M68 479q0 112 39.5 208t104.5 158.5t148 98t172 35.5q76 0 149.5 -33.5t115.5 -93.5v102h325v-954h-325v109q-43 -61 -114 -94t-151 -33q-89 0 -172 34.5t-148.5 96.5t-104.5 157.5t-39 208.5zM330 1135q7 139 68 202.5t139 63.5q37 0 70.5 -21t60.5 -42t47 -21 q16 0 34 20.5t19 63.5h154q-4 -72 -24.5 -126t-52 -82t-64 -41t-66.5 -13q-35 0 -69 21t-62 42t-47 21q-15 0 -34 -22.5t-20 -65.5h-153zM399 477q0 -82 58.5 -140t140.5 -58t140.5 58t58.5 140t-58.5 140.5t-140.5 58.5t-140.5 -58.5t-58.5 -140.5z" />
<glyph unicode="&#xe4;" d="M68 479q0 112 39.5 208t104.5 158.5t148 98t172 35.5q76 0 149.5 -33.5t115.5 -93.5v102h325v-954h-325v109q-43 -61 -114 -94t-151 -33q-89 0 -172 34.5t-148.5 96.5t-104.5 157.5t-39 208.5zM276 1313q0 61 46 104t112 43t110 -42.5t44 -104.5q0 -63 -44 -106.5 t-110 -43.5t-112 43.5t-46 106.5zM399 477q0 -82 58.5 -140t140.5 -58t140.5 58t58.5 140t-58.5 140.5t-140.5 58.5t-140.5 -58.5t-58.5 -140.5zM662 1313q0 61 46.5 104t112.5 43q63 0 107.5 -43t44.5 -104q0 -63 -44.5 -106.5t-107.5 -43.5q-66 0 -112.5 43.5t-46.5 106.5 z" />
<glyph unicode="&#xe5;" d="M68 479q0 112 39.5 208t104.5 158.5t148 98t172 35.5q76 0 149.5 -33.5t115.5 -93.5v102h325v-954h-325v109q-43 -61 -114 -94t-151 -33q-89 0 -172 34.5t-148.5 96.5t-104.5 157.5t-39 208.5zM365 1378q0 110 76 187t182 77q110 0 186 -77t76 -187q0 -109 -76 -184.5 t-186 -75.5q-106 0 -182 76t-76 184zM399 477q0 -82 58.5 -140t140.5 -58t140.5 58t58.5 140t-58.5 140.5t-140.5 58.5t-140.5 -58.5t-58.5 -140.5zM492 1378q0 -59 37.5 -96t93.5 -37q58 0 97.5 37t39.5 96q0 60 -40 100t-97 40q-56 0 -93.5 -40t-37.5 -100z" />
<glyph unicode="&#xe6;" horiz-adv-x="2015" d="M68 479q0 112 39.5 208t104.5 158.5t148 98t172 35.5q76 0 149.5 -33.5t115.5 -93.5v102h325v-96q136 121 342 121q137 0 249 -58t179.5 -170.5t67.5 -258.5q0 -24 -6 -105h-684q7 -65 72 -105t147 -40q115 0 182 80q35 -30 225 -162q-70 -93 -187 -135.5t-245 -42.5 q-205 0 -342 122v-104h-325v109q-43 -61 -114 -94t-151 -33q-89 0 -172 34.5t-148.5 96.5t-104.5 157.5t-39 208.5zM399 477q0 -82 58.5 -140t140.5 -58t140.5 58t58.5 140t-58.5 140.5t-140.5 58.5t-140.5 -58.5t-58.5 -140.5zM1270 569h381q-12 43 -36 73.5t-53.5 44 t-54 19t-47.5 5.5q-22 0 -47 -5.5t-56 -19t-55 -44t-32 -73.5z" />
<glyph unicode="&#xe7;" horiz-adv-x="1077" d="M68 479q0 147 73.5 262.5t193.5 176.5t263 61q259 0 420 -236l-285 -172q-23 41 -65 63.5t-93 22.5q-71 0 -123.5 -53.5t-52.5 -124.5q0 -72 52 -125t124 -53q107 0 154 78l291 -162q-145 -221 -395 -233l73 -107q23 -38 23 -104q0 -91 -63.5 -153t-149.5 -62 q-96 0 -161.5 67t-61.5 197l143 -8q-8 -74 41 -101q38 -21 72 3q43 30 24 95q-2 6 -4 13l-88 172q-177 38 -291 167t-114 316z" />
<glyph unicode="&#xe8;" horiz-adv-x="1126" d="M68 483q0 147 70.5 261.5t185 174.5t251.5 60t249 -58t179.5 -170.5t67.5 -258.5q0 -24 -6 -105h-684q7 -65 72 -105t147 -40q115 0 182 80q30 -25 226 -162q-70 -93 -187.5 -135.5t-245.5 -42.5q-136 0 -251.5 61.5t-185.5 177.5t-70 262zM209 1481h303l190 -357h-210z M381 569h381q-12 43 -36 73.5t-53.5 44t-54 19t-47.5 5.5q-22 0 -47 -5.5t-56 -19t-55 -44t-32 -73.5z" />
<glyph unicode="&#xe9;" horiz-adv-x="1126" d="M68 483q0 147 70.5 261.5t185 174.5t251.5 60t249 -58t179.5 -170.5t67.5 -258.5q0 -24 -6 -105h-684q7 -65 72 -105t147 -40q115 0 182 80q30 -25 226 -162q-70 -93 -187.5 -135.5t-245.5 -42.5q-136 0 -251.5 61.5t-185.5 177.5t-70 262zM381 569h381q-12 43 -36 73.5 t-53.5 44t-54 19t-47.5 5.5q-22 0 -47 -5.5t-56 -19t-55 -44t-32 -73.5zM455 1124l190 357h303l-282 -357h-211z" />
<glyph unicode="&#xea;" horiz-adv-x="1126" d="M68 483q0 147 70.5 261.5t185 174.5t251.5 60t249 -58t179.5 -170.5t67.5 -258.5q0 -24 -6 -105h-684q7 -65 72 -105t147 -40q115 0 182 80q30 -25 226 -162q-70 -93 -187.5 -135.5t-245.5 -42.5q-136 0 -251.5 61.5t-185.5 177.5t-70 262zM186 1141l224 354h319 l225 -354h-221l-164 182l-163 -182h-220zM381 569h381q-12 43 -36 73.5t-53.5 44t-54 19t-47.5 5.5q-22 0 -47 -5.5t-56 -19t-55 -44t-32 -73.5z" />
<glyph unicode="&#xeb;" horiz-adv-x="1126" d="M68 483q0 147 70.5 261.5t185 174.5t251.5 60t249 -58t179.5 -170.5t67.5 -258.5q0 -24 -6 -105h-684q7 -65 72 -105t147 -40q115 0 182 80q30 -25 226 -162q-70 -93 -187.5 -135.5t-245.5 -42.5q-136 0 -251.5 61.5t-185.5 177.5t-70 262zM221 1313q0 61 46 104t112 43 t109.5 -42.5t43.5 -104.5q0 -63 -43.5 -106.5t-109.5 -43.5t-112 43.5t-46 106.5zM381 569h381q-12 43 -36 73.5t-53.5 44t-54 19t-47.5 5.5q-22 0 -47 -5.5t-56 -19t-55 -44t-32 -73.5zM606 1313q0 61 47 104t113 43q63 0 107.5 -43t44.5 -104q0 -63 -44.5 -106.5 t-107.5 -43.5q-66 0 -113 43.5t-47 106.5z" />
<glyph unicode="&#xec;" horiz-adv-x="567" d="M-49 1481h303l190 -357h-211zM123 0v956h321v-956h-321z" />
<glyph unicode="&#xed;" horiz-adv-x="567" d="M123 0v956h321v-956h-321zM125 1124l190 357h303l-282 -357h-211z" />
<glyph unicode="&#xee;" horiz-adv-x="567" d="M-102 1141l223 354h319l226 -354h-222l-163 182l-164 -182h-219zM123 0v956h321v-956h-321z" />
<glyph unicode="&#xef;" horiz-adv-x="567" d="M-66 1313q0 61 46 104t112 43t110 -42.5t44 -104.5q0 -63 -44 -106.5t-110 -43.5t-112 43.5t-46 106.5zM123 0v956h321v-956h-321zM319 1313q0 61 47 104t113 43q63 0 107.5 -43t44.5 -104q0 -63 -44.5 -106.5t-107.5 -43.5q-66 0 -113 43.5t-47 106.5z" />
<glyph unicode="&#xf0;" horiz-adv-x="1130" d="M70 477q0 173 97.5 298.5t256.5 162.5q57 11 131 14l-106 146l-175 -68l-55 100l166 64l-152 217h297l86 -127l160 70l70 -94l-166 -70l287 -416q94 -135 94 -297q0 -147 -68.5 -261.5t-181 -174t-248.5 -59.5q-135 0 -247 59.5t-179 174t-67 261.5zM391 477 q0 -79 50 -127.5t122 -48.5q74 0 124 48t50 128q0 76 -50 123t-124 47q-71 0 -121.5 -47t-50.5 -123z" />
<glyph unicode="&#xf1;" horiz-adv-x="1208" d="M123 0v954h326v-149q15 56 65 97.5t103.5 59t99.5 17.5q189 0 285 -122.5t96 -348.5v-508h-326v498q0 85 -47.5 125.5t-108.5 40.5q-67 0 -117 -39t-50 -123v-502h-326zM309 1135q7 139 68 202.5t139 63.5q37 0 70.5 -21t60.5 -42t47 -21q16 0 34.5 20.5t19.5 63.5h153 q-4 -72 -24.5 -126t-52 -82t-64 -41t-66.5 -13q-35 0 -69 21t-61.5 42t-47.5 21q-15 0 -33.5 -22.5t-19.5 -65.5h-154z" />
<glyph unicode="&#xf2;" horiz-adv-x="1153" d="M68 479q0 147 70 262.5t184.5 176.5t250.5 61q101 0 194 -36t163.5 -100t112.5 -158.5t42 -205.5q0 -146 -72 -261t-188 -175.5t-252 -60.5t-250.5 60.5t-184.5 175.5t-70 261zM174 1481h303l191 -357h-211zM375 479q0 -82 58 -140t140 -58t140.5 58t58.5 140 t-58.5 140.5t-140.5 58.5t-140 -58.5t-58 -140.5z" />
<glyph unicode="&#xf3;" horiz-adv-x="1153" d="M68 479q0 147 70 262.5t184.5 176.5t250.5 61q101 0 194 -36t163.5 -100t112.5 -158.5t42 -205.5q0 -146 -72 -261t-188 -175.5t-252 -60.5t-250.5 60.5t-184.5 175.5t-70 261zM375 479q0 -82 58 -140t140 -58t140.5 58t58.5 140t-58.5 140.5t-140.5 58.5t-140 -58.5 t-58 -140.5zM446 1124l191 357h303l-283 -357h-211z" />
<glyph unicode="&#xf4;" horiz-adv-x="1153" d="M68 479q0 147 70 262.5t184.5 176.5t250.5 61q101 0 194 -36t163.5 -100t112.5 -158.5t42 -205.5q0 -146 -72 -261t-188 -175.5t-252 -60.5t-250.5 60.5t-184.5 175.5t-70 261zM193 1141l223 354h319l226 -354h-222l-164 182l-163 -182h-219zM375 479q0 -82 58 -140 t140 -58t140.5 58t58.5 140t-58.5 140.5t-140.5 58.5t-140 -58.5t-58 -140.5z" />
<glyph unicode="&#xf5;" horiz-adv-x="1153" d="M68 479q0 147 70 262.5t184.5 176.5t250.5 61q101 0 194 -36t163.5 -100t112.5 -158.5t42 -205.5q0 -146 -72 -261t-188 -175.5t-252 -60.5t-250.5 60.5t-184.5 175.5t-70 261zM281 1135q7 139 67.5 202.5t138.5 63.5q29 0 57 -13t46 -29t38.5 -29t37.5 -13q16 0 34 20.5 t19 63.5h153q-4 -72 -24.5 -126t-51.5 -82t-63.5 -41t-66.5 -13q-35 0 -69.5 21t-62.5 42t-47 21q-15 0 -33.5 -22.5t-19.5 -65.5h-153zM375 479q0 -82 58 -140t140 -58t140.5 58t58.5 140t-58.5 140.5t-140.5 58.5t-140 -58.5t-58 -140.5z" />
<glyph unicode="&#xf6;" horiz-adv-x="1153" d="M68 479q0 147 70 262.5t184.5 176.5t250.5 61q101 0 194 -36t163.5 -100t112.5 -158.5t42 -205.5q0 -146 -72 -261t-188 -175.5t-252 -60.5t-250.5 60.5t-184.5 175.5t-70 261zM229 1313q0 61 46 104t112 43t110 -42.5t44 -104.5q0 -63 -44 -106.5t-110 -43.5t-112 43.5 t-46 106.5zM375 479q0 -82 58 -140t140 -58t140.5 58t58.5 140t-58.5 140.5t-140.5 58.5t-140 -58.5t-58 -140.5zM614 1313q0 61 47 104t113 43q63 0 107.5 -43t44.5 -104q0 -63 -44.5 -106.5t-107.5 -43.5q-66 0 -113 43.5t-47 106.5z" />
<glyph unicode="&#xf7;" horiz-adv-x="1271" d="M102 446v209h1067v-209h-1067zM463 150q0 71 48.5 117t121.5 46t122.5 -46t49.5 -117q0 -72 -50 -120t-122 -48t-121 48t-49 120zM463 942q0 71 48.5 117.5t121.5 46.5t122.5 -46.5t49.5 -117.5q0 -74 -49.5 -120t-122.5 -46t-121.5 46t-48.5 120z" />
<glyph unicode="&#xf8;" horiz-adv-x="1153" d="M68 479q0 147 70 262.5t184.5 176.5t250.5 61q174 0 314 -100l104 106l84 -82l-102 -104q112 -131 112 -320q0 -146 -72 -261t-188 -175.5t-252 -60.5q-172 0 -303 94l-112 -115l-84 84l108 111q-114 133 -114 323zM375 479q0 -59 26 -98l267 272q-55 25 -95 25 q-82 0 -140 -58.5t-58 -140.5zM487 299q41 -18 86 -18q82 0 140.5 58t58.5 140q0 41 -22 90z" />
<glyph unicode="&#xf9;" horiz-adv-x="1208" d="M111 453v501h325v-491q0 -85 47.5 -125.5t108.5 -40.5q66 0 117 36.5t51 119.5v501h325v-954h-325v150q-15 -56 -65.5 -96.5t-103 -56t-99.5 -15.5q-189 0 -285 122.5t-96 348.5zM256 1481h303l191 -357h-211z" />
<glyph unicode="&#xfa;" horiz-adv-x="1208" d="M111 453v501h325v-491q0 -85 47.5 -125.5t108.5 -40.5q66 0 117 36.5t51 119.5v501h325v-954h-325v150q-15 -56 -65.5 -96.5t-103 -56t-99.5 -15.5q-189 0 -285 122.5t-96 348.5zM473 1124l191 357h303l-283 -357h-211z" />
<glyph unicode="&#xfb;" horiz-adv-x="1208" d="M111 453v501h325v-491q0 -85 47.5 -125.5t108.5 -40.5q66 0 117 36.5t51 119.5v501h325v-954h-325v150q-15 -56 -65.5 -96.5t-103 -56t-99.5 -15.5q-189 0 -285 122.5t-96 348.5zM209 1141l223 354h320l225 -354h-221l-164 182l-164 -182h-219z" />
<glyph unicode="&#xfc;" horiz-adv-x="1208" d="M111 453v501h325v-491q0 -85 47.5 -125.5t108.5 -40.5q66 0 117 36.5t51 119.5v501h325v-954h-325v150q-15 -56 -65.5 -96.5t-103 -56t-99.5 -15.5q-189 0 -285 122.5t-96 348.5zM270 1313q0 61 46 104t112 43t110 -42.5t44 -104.5q0 -63 -44 -106.5t-110 -43.5 t-112 43.5t-46 106.5zM655 1313q0 61 47 104t113 43q63 0 107.5 -43t44.5 -104q0 -63 -44.5 -106.5t-107.5 -43.5q-66 0 -113 43.5t-47 106.5z" />
<glyph unicode="&#xfd;" horiz-adv-x="1060" d="M-8 954h356l187 -462l178 462h346l-590 -1425h-342l240 598zM375 1124l190 357h303l-282 -357h-211z" />
<glyph unicode="&#xfe;" horiz-adv-x="1247" d="M123 -471v1927h326v-590q105 113 264 113q89 0 172.5 -35.5t148.5 -98t104.5 -158.5t39.5 -208q0 -113 -39.5 -208.5t-104.5 -157.5t-148.5 -96.5t-172.5 -34.5q-87 0 -166 37.5t-117 117.5v-608h-307zM449 477q0 -82 58 -140t140 -58t140.5 58t58.5 140t-58.5 140.5 t-140.5 58.5t-140 -58.5t-58 -140.5z" />
<glyph unicode="&#xff;" horiz-adv-x="1126" d="M68 467q0 23 6 104h684q-7 65 -72 105.5t-147 40.5q-116 0 -183 -80q-35 30 -225 162q70 93 187 135.5t245 42.5q136 0 251.5 -61.5t186 -178t70.5 -262.5q0 -147 -70.5 -261.5t-185.5 -174t-252 -59.5t-248.5 58t-179 170.5t-67.5 258.5zM377 389q12 -43 36 -73.5 t53.5 -44t53.5 -18.5t47 -5q24 0 48.5 5t55 18.5t54.5 44t33 73.5h-381z" />
<glyph unicode="&#x152;" horiz-adv-x="2207" d="M78 705q0 196 96 363t261.5 264.5t361.5 97.5q198 0 379 -109v90h915v-299h-573v-270h503v-293h-503v-250h591v-299h-933v88q-176 -106 -379 -106q-118 0 -228 36.5t-198 104t-154.5 156.5t-102.5 199t-36 227zM424 705q0 -158 108 -268.5t265 -110.5q156 0 266.5 110.5 t110.5 268.5t-110.5 269t-266.5 111t-264.5 -110.5t-108.5 -269.5z" />
<glyph unicode="&#x153;" horiz-adv-x="1835" d="M68 479q0 147 70 262.5t184.5 176.5t250.5 61q100 0 193 -35t162 -98q146 133 356 133q137 0 249 -58t179.5 -170.5t67.5 -258.5q0 -24 -6 -105h-684q7 -65 72 -105t147 -40q115 0 182 80q35 -30 225 -162q-70 -93 -187 -135.5t-245 -42.5q-213 0 -354 135 q-147 -135 -357 -135q-136 0 -250.5 60.5t-184.5 175.5t-70 261zM375 479q0 -82 58 -140t140 -58t140.5 58t58.5 140t-58.5 140.5t-140.5 58.5t-140 -58.5t-58 -140.5zM1090 569h380q-12 43 -36 73.5t-53.5 44t-53.5 19t-47 5.5q-22 0 -47 -5.5t-56 -19t-55 -44t-32 -73.5z " />
<glyph unicode="&#x178;" horiz-adv-x="1357" d="M-45 1411h407l314 -512l319 512h406l-551 -782v-629h-344v635zM330 1722q0 62 45.5 105t111.5 43t110 -43t44 -105q0 -63 -44 -106t-110 -43t-111.5 43t-45.5 106zM715 1722q0 61 46.5 104.5t112.5 43.5q63 0 107.5 -43.5t44.5 -104.5q0 -63 -44.5 -106t-107.5 -43 q-66 0 -112.5 43t-46.5 106z" />
<glyph unicode="&#x2c6;" horiz-adv-x="1198" d="M215 1141l223 354h320l225 -354h-221l-164 182l-164 -182h-219z" />
<glyph unicode="&#x2dc;" horiz-adv-x="919" d="M164 1135q7 139 68 202.5t139 63.5q37 0 70.5 -21t60.5 -42t47 -21q16 0 34 20.5t19 63.5h154q-4 -72 -24.5 -126t-52 -82t-64 -41t-66.5 -13q-35 0 -69 21t-62 42t-47 21q-15 0 -34 -22.5t-20 -65.5h-153z" />
<glyph unicode="&#x2000;" horiz-adv-x="1026" />
<glyph unicode="&#x2001;" horiz-adv-x="2052" />
<glyph unicode="&#x2002;" horiz-adv-x="1026" />
<glyph unicode="&#x2003;" horiz-adv-x="2052" />
<glyph unicode="&#x2004;" horiz-adv-x="684" />
<glyph unicode="&#x2005;" horiz-adv-x="513" />
<glyph unicode="&#x2006;" horiz-adv-x="342" />
<glyph unicode="&#x2007;" horiz-adv-x="342" />
<glyph unicode="&#x2008;" horiz-adv-x="256" />
<glyph unicode="&#x2009;" horiz-adv-x="410" />
<glyph unicode="&#x200a;" horiz-adv-x="114" />
<glyph unicode="&#x2010;" horiz-adv-x="964" d="M119 358v277h727v-277h-727z" />
<glyph unicode="&#x2011;" horiz-adv-x="964" d="M119 358v277h727v-277h-727z" />
<glyph unicode="&#x2012;" horiz-adv-x="964" d="M119 358v277h727v-277h-727z" />
<glyph unicode="&#x2013;" horiz-adv-x="1339" d="M119 352v277h1102v-277h-1102z" />
<glyph unicode="&#x2014;" horiz-adv-x="1781" d="M119 350v277h1544v-277h-1544z" />
<glyph unicode="&#x2018;" horiz-adv-x="544" d="M104 946q0 97 24 187.5t64.5 158.5t80.5 116.5t83 84.5l133 -82q-71 -96 -101 -203.5t-30 -261.5h-254z" />
<glyph unicode="&#x2019;" horiz-adv-x="526" d="M72 948q69 97 100 205.5t31 259.5h254q0 -97 -24 -187.5t-64.5 -158.5t-80.5 -116.5t-83 -84.5z" />
<glyph unicode="&#x201a;" horiz-adv-x="532" d="M16 -201q69 97 100 205.5t31 259.5h254q0 -97 -24 -187.5t-64 -158.5t-80 -116.5t-83 -84.5z" />
<glyph unicode="&#x201c;" horiz-adv-x="903" d="M104 946q0 97 24 187.5t64.5 158.5t80.5 116.5t83 84.5l133 -82q-71 -96 -101 -203.5t-30 -261.5h-254zM463 946q0 97 24 187.5t64.5 158.5t80.5 116.5t83 84.5l133 -82q-71 -96 -101 -203.5t-30 -261.5h-254z" />
<glyph unicode="&#x201d;" horiz-adv-x="884" d="M72 948q69 97 100 205.5t31 259.5h254q0 -97 -24 -187.5t-64.5 -158.5t-80.5 -116.5t-83 -84.5zM430 948q69 97 100 205.5t31 259.5h254q0 -97 -24 -187.5t-64.5 -158.5t-80.5 -116.5t-83 -84.5z" />
<glyph unicode="&#x201e;" horiz-adv-x="890" d="M16 -201q69 97 100 205.5t31 259.5h254q0 -97 -24 -187.5t-64 -158.5t-80 -116.5t-83 -84.5zM375 -201q69 97 100 205.5t31 259.5h254q0 -97 -24 -187.5t-64.5 -158.5t-80.5 -116.5t-83 -84.5z" />
<glyph unicode="&#x2022;" horiz-adv-x="1003" d="M166 487q0 138 99 231t237 93t237 -93t99 -231q0 -139 -98.5 -232t-237.5 -93t-237.5 93t-98.5 232z" />
<glyph unicode="&#x2026;" horiz-adv-x="1898" d="M100 172q0 79 57 132.5t136 53.5q81 0 138.5 -53t57.5 -133q0 -81 -57.5 -135.5t-138.5 -54.5q-79 0 -136 54.5t-57 135.5zM756 172q0 79 56.5 132.5t135.5 53.5q81 0 139 -53t58 -133q0 -81 -58 -135.5t-139 -54.5q-79 0 -135.5 54.5t-56.5 135.5zM1411 172 q0 79 57 132.5t136 53.5q80 0 137 -53.5t57 -132.5q0 -81 -57 -135.5t-137 -54.5q-79 0 -136 54.5t-57 135.5z" />
<glyph unicode="&#x202f;" horiz-adv-x="410" />
<glyph unicode="&#x2039;" horiz-adv-x="681" d="M74 477l282 424h244l-283 -424l283 -424h-244z" />
<glyph unicode="&#x203a;" horiz-adv-x="681" d="M82 53l283 424l-283 424h244l282 -424l-282 -424h-244z" />
<glyph unicode="&#x205f;" horiz-adv-x="513" />
<glyph unicode="&#x20ac;" horiz-adv-x="1708" d="M84 526v136h995v-136h-432q44 -105 134.5 -164t207.5 -59q111 0 201.5 54t138.5 143l287 -183q-89 -156 -254 -245.5t-373 -89.5q-257 0 -450.5 152t-251.5 392h-203zM84 764v135h207q62 236 253.5 383.5t444.5 147.5q206 0 368 -86.5t251 -237.5l-289 -182 q-47 86 -133.5 134t-196.5 48q-112 0 -199.5 -54t-134.5 -153h424v-135h-995z" />
<glyph unicode="&#x2122;" horiz-adv-x="1724" d="M123 1241v170h795l215 -440l210 440h162l90 -749h-190l-47 415l-156 -334h-135l-160 336l-47 -417h-188l71 579h-194v-579h-189v579h-237z" />
<glyph unicode="&#x25fc;" horiz-adv-x="952" d="M0 0v952h952v-952h-952z" />
</font>
</defs>
</svg>
